<?xml version="1.0" encoding="utf-8"?>
<!-- Generator: Adobe Illustrator 18.1.1, SVG Export Plug-In . SVG Version: 6.00 Build 0)  -->
<svg version="1.1" id="Layer_1" xmlns="http://www.w3.org/2000/svg" xmlns:xlink="http://www.w3.org/1999/xlink" x="0px" y="0px"
	 width="700px" height="180px" viewBox="0 0 700 180" enable-background="new 0 0 700 180" xml:space="preserve">
<g>
	<path d="M452.5,85.6c-1,0.7-2.1,1.3-3,2c-0.5,0.4-0.7,1-1.1,1.5c-0.2,0.2-0.4,0.4-0.7,0.6c-4.6,2.7-9.3,5.3-13.7,8.2
		c-7.2,4.6-13.7,10.3-19.8,16.3c-2,1.9-3.9,3.9-5.8,5.8c-0.3,0.3-0.5,0.6-0.6,1c-3.5,12.1-7.4,24.1-12.6,35.6
		c-2.1,4.6-4.2,9-7.3,13.1c-0.6,0.8-1.2,1.6-2,2.2c-0.9,0.7-1.9,1.1-2.9,1.7c-1.4,0-2.8,0-4.2,0c-0.8-0.3-1.6-0.5-2.5-0.8
		c-4.1-1.2-6-4.2-6.5-8.2c-0.9-7.2,0.9-13.7,4.7-19.8c3.4-5.6,7.7-10.3,12.4-14.8c3.1-3,6.3-5.8,9.6-8.6c1.9-1.6,4-2.8,6-4.3
		c1.3-0.9,2.1-2.2,2.7-3.7c2-5.8,4-11.5,5.4-17.5c0.2-0.7,0.3-1.5,0.4-2.2c0-0.3,0-0.6-0.1-1.1c-0.7,0.5-1.2,0.9-1.6,1.3
		c-3.3,3-7,5.2-11.5,5.8c-1.8,0.3-3.7,0.4-5.5,0.2c-2.6-0.2-4.7-2.4-5.2-5.1c-0.1-0.3-0.1-0.5-0.2-0.9c-1.4,1.1-2.7,2.2-4.1,3.3
		c-2.2,1.7-4.6,3.2-7.3,4.2c-5.6,2.2-10.8,1.6-15.5-2.5c-0.2,0.2-0.5,0.5-0.7,0.7c-3.3,2.9-7,4.1-11.4,3.4c-2.7-0.5-4.6-2.1-5.5-4.8
		c-0.1-0.3-0.2-0.7-0.4-1.1c-1.7,3.4-3.7,6.5-6.2,9.2c-2,2.1-4.1,3.9-6.9,4.9c-2.9,1-5.5,0.3-7.6-1.9c-1.6-1.6-2.6-3.7-3.5-5.9
		c-0.2,0.5-0.4,0.8-0.6,1.1c-1,2.8-2,5.7-3,8.6c-0.4,1-0.7,2-1.1,3c-0.6,1.5-2.5,1.8-3.7,0.7c-1.1-1.1-1.2-2.5-1.1-3.9
		c0.1-1.3,0.4-2.5,0.6-3.8c-2.9,2.8-6.4,4.5-10.2,5.6c-3.1,0.9-6.2,1.4-9.5,0.9c-5.4-0.9-8.5-4.8-8.1-10.4c0.2-2.4,0.9-4.6,2-6.6
		c3.2-5.9,7.7-10.6,13.9-13.5c1.7-0.8,3.5-1.2,5.3-1c3.7,0.4,5.2,2.5,4.3,6.1c-0.7,2.8-2.5,4.8-4.5,6.7c-4.1,3.6-8.7,6-14.2,7
		c-0.2,0-0.4,0.1-0.5,0.2c0,2.9,1.9,5.5,4.4,6c1.6,0.3,3.2,0,4.7-0.6c7.7-3.1,13.8-7.9,17.7-15.3c2.1-4,3.9-8.1,5.7-12.2
		c0.4-0.8,0.8-1.4,1.7-1.8c1.5-0.7,2.9-1.8,4.4-2.5c2.6-1.4,5.4-2,8.3-0.9c0.4,0.2,0.9,0.6,1,1c1.8,4.9,1,9.5-1.6,13.8
		c-2.3,3.9-5.5,6.7-9.9,8c-0.4,0.1-0.8,0.2-1.3,0.3c0.3,1.8,0.8,3.6,2.1,4.9c1,1,2.2,0.9,3.4,0.3c1.9-0.9,3.2-2.3,4.6-3.8
		c3.5-4,6.3-8.6,8.9-13.2c1.6-2.8,3-5.7,4.5-8.5c0.1-0.2,0.2-0.4,0.3-0.6c1,0.4,1.4,1.3,1.5,2.2c0.1,2,0,4.1-0.1,6.1
		c0,2.4-0.3,4.8,0,7.1c0.2,2.1,1.4,2.9,3.6,3c2,0.1,3.3-0.3,5-1.4c-0.3-2.2-0.7-4.4-0.9-6.6c-0.6-6,0.3-11.9,2.3-17.6
		c3.2-9.2,8.7-16.9,16.4-22.9c0.5-0.4,0.8-0.4,1.2,0c1.5,1.3,2.1,3.1,2.2,5c0.3,4.7-0.6,9.2-2,13.7c-2.2,7.1-5.4,13.7-8.9,20.2
		c-1,1.9-2,3.8-3.1,5.7c-0.3,0.5-0.2,0.9,0.1,1.3c2,2.7,4.9,3.5,8.3,2.4c3-1,5.5-2.8,7.7-4.9c4.5-4.2,7.9-9.1,10-15
		c0.1-0.3,0.1-0.5,0.3-0.8c0.2-0.5,0-1.2,0.9-1.3c1.1,0,2,0.3,2.2,1.1c0.2,0.7,0.4,1.5,0.3,2.2c-0.4,2.4-0.9,4.7-1.3,7.1
		c-0.2,1.6-0.4,3.2-0.2,4.8c0.2,2.1,1.9,3.3,4,2.9c3.2-0.5,6.3-1.1,9.1-2.9c3.7-2.4,6.2-5.9,7.9-9.8c1.6-3.5,2.8-7.2,4.3-10.8
		c0.6-1.5,1.4-3,2.3-4.4c1.1-1.6,2.6-1.9,4.4-1.1c0.6,0.3,0.7,0.6,0.6,1.2c-0.5,4.3-1.6,8.5-2.9,12.6c-2.7,8.5-5.6,16.9-8.4,25.4
		c-0.7,2-1.3,4.1-1.8,6.2c1.3-1.2,2.7-2.3,4-3.5c5.7-5,11.3-9.9,17.7-14c5.2-3.3,10.7-5.9,16.8-7c1-0.2,1.9-0.2,2.9-0.3
		C452.5,85.3,452.5,85.5,452.5,85.6z M402.3,123.7c-0.3,0.1-0.4,0.2-0.4,0.2c-0.3,0.3-0.7,0.6-1,0.9c-6.5,6.1-12.5,12.7-18.1,19.7
		c-2.3,2.9-4.4,5.9-5.5,9.5c-0.9,2.9-1.6,5.8-1.1,8.9c0.3,1.7,1,3.1,2.8,3.7c1.8,0.6,3.3,0,4.5-1.3c0.4-0.4,0.9-0.8,1.2-1.3
		c1.4-2.3,3-4.6,4.2-7.1c4.1-8.2,7.5-16.7,10.7-25.2C400.4,129,401.3,126.5,402.3,123.7z M373.8,55.3c-0.1,0-0.2-0.1-0.3-0.1
		c-4.2,4.2-6.9,9.3-8.9,14.8c-2.3,6.4-3,14.4-2.1,17.2c0.8-1.5,1.7-2.9,2.5-4.4c3.8-7.1,7.2-14.4,8.4-22.4
		C373.5,58.7,373.6,57,373.8,55.3z M332,81c-1.8,1-3.4,1.8-4.9,2.8c-2.6,1.7-4.8,3.7-6.1,6.6c-0.7,1.4-1.1,2.9-1,4.5
		c0.2,0,0.2,0,0.3,0c3.1-1.3,6-2.9,8.3-5.4C330.9,87.2,332.2,84.6,332,81z M302.2,88.9c-2.1-0.1-4.1,0.2-6,1.1
		c-3.9,1.9-5.7,5.5-7.3,9.3C294.3,99.3,301.7,93.5,302.2,88.9z"/>
	<path d="M247.9,37.1c0.2-0.7,0.4-1.4,0.6-2.1c0.2-0.6,0.7-0.6,1-0.2c0.5,0.5,1,1.1,1.2,1.7c0.9,3,1.9,5.9,2.5,9
		c1.4,7.4,2.5,14.9,3.8,22.4c1.7,10.1,3.3,20.3,5.1,30.4c0.5,2.7,1.2,5.4,2,8.1c0.1-0.3,0.2-0.5,0.3-0.8
		c6.6-17.1,13.3-34.1,20.8-50.8c3-6.7,6.1-13.3,10-19.5c1-1.7,2.2-3.3,3.9-4.4c0.3,0,0.7,0,1,0c0.9,1.1,0.4,2.3,0.2,3.4
		c-1,5.1-2.7,10-4.4,14.8c-7,19.6-15.1,38.8-24.4,57.5c-1.8,3.7-4,7.2-6.1,10.8c-0.4,0.7-1,1.4-1.6,2c-0.9,0.9-1.6,0.9-2.3-0.2
		c-0.6-0.8-1-1.7-1.4-2.6c-1.6-3.9-2.6-8-3.3-12.1c-1.5-8.5-3-17.1-4.2-25.6c-1.1-7.6-1.8-15.2-2.8-22.8c-0.5-3.9-1.1-7.8-1.6-11.8
		c-0.1-0.6-0.2-1.3-0.3-1.9C247.9,40.5,247.9,38.8,247.9,37.1z"/>
	<path d="M345.8,70.6c0.2-1.3,0.3-2.7,0.6-4c0.2-1.1,0.9-1.6,1.8-1.7c1.3-0.1,1.7,0.2,2,1.5c0.3,1.4,0.2,2.7-0.5,4
		c-0.7,1.3-1.8,1.7-3.1,1.3C346.1,71.5,345.7,71.3,345.8,70.6z"/>
	<path fill="#FFFFFF" d="M402.3,123.7c-1,2.8-1.9,5.3-2.8,7.9c-3.2,8.6-6.5,17.1-10.7,25.2c-1.2,2.4-2.8,4.7-4.2,7.1
		c-0.3,0.5-0.8,0.9-1.2,1.3c-1.2,1.4-2.7,1.9-4.5,1.3c-1.8-0.6-2.5-2-2.8-3.7c-0.5-3.1,0.2-6,1.1-8.9c1.1-3.6,3.2-6.6,5.5-9.5
		c5.6-7,11.6-13.5,18.1-19.7c0.3-0.3,0.7-0.6,1-0.9C402,123.9,402.1,123.9,402.3,123.7z"/>
</g>
</svg>
